<svg xmlns="http://www.w3.org/2000/svg" viewBox="0 0 216 216"><defs><style>.cls-1{fill:#42853e;}.cls-2,.cls-4{fill:none;stroke:#fff;stroke-width:6px;}.cls-3{fill:#fff;}.cls-4{stroke-linecap:round;stroke-linejoin:bevel;}</style></defs><title>lanebreach-logo</title><g id="Layer_2" data-name="Layer 2"><rect class="cls-1" width="216" height="216"/></g><g id="Layer_1" data-name="Layer 1"><circle class="cls-2" cx="58.07" cy="114.25" r="28.6" transform="translate(-4.02 2.14) rotate(-2.04)"/><path class="cls-2" d="M188.6,114.25A28.6,28.6,0,1,1,160,85.65,28.6,28.6,0,0,1,188.6,114.25Z"/><path class="cls-3" d="M64.3,103.34a8,8,0,1,1-8-8A8,8,0,0,1,64.3,103.34Z"/><path class="cls-3" d="M165,103.34a8,8,0,1,1-8-8A8,8,0,0,1,165,103.34Z"/><polyline class="cls-4" points="73.1 65.11 108.85 118.47 120.95 118.47"/><line class="cls-4" x1="108.85" y1="118.46" x2="134.15" y2="64.56"/><line class="cls-4" x1="122.6" y1="62.91" x2="142.95" y2="62.91"/><polyline class="cls-4" points="88.5 48.06 76.95 48.06 67.05 76.67"/><line class="cls-2" x1="128.18" y1="77.29" x2="82.36" y2="77.29"/><path class="cls-4" d="M71.08,156.14a52.22,52.22,0,0,0,73.89,0"/></g></svg>